<svg width="32" height="33" viewBox="0 0 32 33" fill="none" xmlns="http://www.w3.org/2000/svg">
<path d="M29.3333 14.8333H2.66663C2.11996 14.8333 1.66663 14.38 1.66663 13.8333C1.66663 13.2867 2.11996 12.8333 2.66663 12.8333H29.3333C29.88 12.8333 30.3333 13.2867 30.3333 13.8333C30.3333 14.38 29.88 14.8333 29.3333 14.8333Z" fill="#292D32"/>
<path d="M15.4004 28.8334H8.58704C3.28037 28.8334 1.65369 27.2334 1.65369 21.98V11.02C1.65369 6.82003 2.54701 4.4867 7.30701 4.2067C7.70701 4.19336 8.1337 4.18002 8.58704 4.18002H23.4004C28.707 4.18002 30.3337 5.78002 30.3337 11.0334V16.9134C30.3337 17.46 29.8804 17.9134 29.3337 17.9134C28.787 17.9134 28.3337 17.46 28.3337 16.9134V11.0334C28.3337 6.91336 27.6004 6.18002 23.4004 6.18002H8.58704C8.16037 6.18002 7.77368 6.19336 7.40035 6.2067C4.50702 6.38003 3.65369 7.03336 3.65369 11.0334V21.9934C3.65369 26.1134 4.38704 26.8467 8.58704 26.8467H15.4004C15.947 26.8467 16.4004 27.3 16.4004 27.8467C16.4004 28.3934 15.9604 28.8334 15.4004 28.8334Z" fill="#292D32"/>
<path d="M13.3333 22.8333H8C7.45333 22.8333 7 22.38 7 21.8333C7 21.2867 7.45333 20.8333 8 20.8333H13.3333C13.88 20.8333 14.3333 21.2867 14.3333 21.8333C14.3333 22.38 13.88 22.8333 13.3333 22.8333Z" fill="#292D32"/>
<path d="M24 30.8333C21.7866 30.8333 19.7066 29.66 18.5866 27.7533C17.9866 26.7933 17.6666 25.66 17.6666 24.5C17.6666 21.0067 20.5066 18.1667 24 18.1667C27.4933 18.1667 30.3333 21.0067 30.3333 24.5C30.3333 25.66 30.0133 26.7933 29.4133 27.7667C28.2933 29.66 26.2133 30.8333 24 30.8333ZM24 20.1667C21.6133 20.1667 19.6666 22.1133 19.6666 24.5C19.6666 25.2867 19.8799 26.06 20.2933 26.7267C21.0666 28.0333 22.4933 28.8333 24 28.8333C25.5066 28.8333 26.9333 28.0333 27.7067 26.74C28.12 26.06 28.3333 25.3 28.3333 24.5C28.3333 22.1133 26.3866 20.1667 24 20.1667Z" fill="#292D32"/>
<path d="M23.2399 26.82C22.9866 26.82 22.7333 26.7267 22.5333 26.5267L21.2132 25.2067C20.8266 24.82 20.8266 24.18 21.2132 23.7933C21.5999 23.4067 22.2399 23.4067 22.6265 23.7933L23.2666 24.4333L25.3999 22.46C25.7999 22.0867 26.4399 22.1133 26.8132 22.5133C27.1866 22.9133 27.1599 23.5533 26.7599 23.9267L23.9199 26.5533C23.7199 26.7267 23.4799 26.82 23.2399 26.82Z" fill="#292D32"/>
</svg>
