<svg width="24" height="24" viewBox="0 0 24 24" fill="none" xmlns="http://www.w3.org/2000/svg">
<path d="M17.2346 11.0586C16.8119 11.0586 16.4692 11.4532 16.4692 11.9402C16.4692 12.4271 16.8119 12.8218 17.2346 12.8218C17.6574 12.8218 18 12.4271 18 11.9402C18 11.4532 17.6574 11.0586 17.2346 11.0586Z" stroke="#B7B7B7" stroke-linejoin="round"/>
<path d="M14.2332 13.9698C13.0343 13.6199 12.1176 11.4414 12.1176 11.4414C12.1176 11.4414 11.201 13.6192 10.0021 13.9698C8.80318 14.3196 8.13646 14.1158 7.5708 13.8534C7.5708 13.8534 8.54606 15.8273 8.54606 16.8287H15.6886C15.6886 15.8273 16.6638 13.8534 16.6638 13.8534C16.0982 14.1158 15.4315 14.3203 14.2326 13.9698H14.2332Z" stroke="#B7B7B7" stroke-linejoin="round"/>
<path d="M7.70713 12.2782C7.86889 11.8284 7.68344 11.3127 7.29291 11.1264C6.90238 10.9401 6.45466 11.1537 6.2929 11.6035C6.13113 12.0533 6.31659 12.569 6.70712 12.7553C7.09764 12.9417 7.54537 12.728 7.70713 12.2782Z" stroke="#B7B7B7" stroke-linejoin="round"/>
<path d="M12.6597 9.87044C12.9586 9.52616 12.9586 8.96798 12.6597 8.6237C12.3608 8.27942 11.8762 8.27942 11.5773 8.6237C11.2784 8.96798 11.2784 9.52616 11.5773 9.87044C11.8762 10.2147 12.3608 10.2147 12.6597 9.87044Z" stroke="#B7B7B7" stroke-linejoin="round"/>
<circle cx="12" cy="12" r="11.5" stroke="#B7B7B7"/>
</svg>
