<svg width="24" height="24" viewBox="0 0 24 24" fill="none" xmlns="http://www.w3.org/2000/svg">
<path d="M17.2346 11.0588C16.8119 11.0588 16.4692 11.4535 16.4692 11.9404C16.4692 12.4274 16.8119 12.822 17.2346 12.822C17.6574 12.822 18 12.4274 18 11.9404C18 11.4535 17.6574 11.0588 17.2346 11.0588Z" stroke="#22D98C" stroke-linejoin="round"/>
<path d="M14.2332 13.9695C13.0343 13.6196 12.1176 11.4412 12.1176 11.4412C12.1176 11.4412 11.201 13.6189 10.0021 13.9695C8.80318 14.3194 8.13646 14.1155 7.5708 13.8531C7.5708 13.8531 8.54606 15.827 8.54606 16.8285H15.6886C15.6886 15.827 16.6638 13.8531 16.6638 13.8531C16.0982 14.1155 15.4315 14.3201 14.2326 13.9695H14.2332Z" stroke="#22D98C" stroke-linejoin="round"/>
<path d="M7.70713 12.2785C7.86889 11.8286 7.68344 11.313 7.29291 11.1266C6.90238 10.9403 6.45466 11.1539 6.2929 11.6037C6.13113 12.0536 6.31659 12.5693 6.70712 12.7556C7.09764 12.9419 7.54537 12.7283 7.70713 12.2785Z" stroke="#22D98C" stroke-linejoin="round"/>
<path d="M12.6597 9.8702C12.9586 9.52592 12.9586 8.96773 12.6597 8.62345C12.3608 8.27917 11.8762 8.27917 11.5773 8.62345C11.2784 8.96773 11.2784 9.52592 11.5773 9.8702C11.8762 10.2145 12.3608 10.2145 12.6597 9.8702Z" stroke="#22D98C" stroke-linejoin="round"/>
<circle cx="12" cy="12" r="11.5" stroke="#22D98C"/>
</svg>
