<svg width="24" height="24" viewBox="0 0 24 24" fill="none" xmlns="http://www.w3.org/2000/svg">
<path fill-rule="evenodd" clip-rule="evenodd" d="M2.36305 16C1.89032 16 1.53018 16.4312 1.66239 16.8851C2.54376 19.9106 4.8741 21.25 9 21.25H15C19.1259 21.25 21.4562 19.9106 22.3376 16.8851C22.4698 16.4312 22.1097 16 21.6369 16C21.2804 16 20.9776 16.2516 20.8711 16.5919C20.1578 18.8712 18.3746 19.75 15 19.75H9C5.62537 19.75 3.84224 18.8712 3.12891 16.5919C3.02243 16.2516 2.71956 16 2.36305 16Z" fill="#292D32"/>
<path d="M14.9999 10.5025C14.8099 10.5025 14.6199 10.5725 14.4699 10.7225L11.9999 13.1925L9.52994 10.7225C9.23994 10.4325 8.75994 10.4325 8.46994 10.7225C8.17994 11.0125 8.17994 11.4925 8.46994 11.7825L11.4699 14.7825C11.7599 15.0725 12.2399 15.0725 12.5299 14.7825L15.5299 11.7825C15.8199 11.4925 15.8199 11.0125 15.5299 10.7225C15.3799 10.5725 15.1899 10.5025 14.9999 10.5025Z" fill="#292D32"/>
<path d="M12 2.76245C11.59 2.76245 11.25 3.19193 11.25 3.70982V13.8151C11.25 14.333 11.59 14.7625 12 14.7625C12.41 14.7625 12.75 14.333 12.75 13.8151V3.70982C12.75 3.17929 12.41 2.76245 12 2.76245Z" fill="#292D32"/>
</svg>
