<svg width="32" height="32" viewBox="0 0 32 32" fill="none" xmlns="http://www.w3.org/2000/svg">
<path d="M22.6666 30.3333H9.33329C3.45329 30.3333 1.66663 28.5467 1.66663 22.6667V9.33334C1.66663 3.45334 3.45329 1.66667 9.33329 1.66667H11.3333C13.6666 1.66667 14.4 2.42667 15.3333 3.66667L17.3333 6.33334C17.7733 6.92 17.84 7 18.6666 7H22.6666C28.5466 7 30.3333 8.78667 30.3333 14.6667V22.6667C30.3333 28.5467 28.5466 30.3333 22.6666 30.3333ZM9.33329 3.66667C4.57329 3.66667 3.66663 4.57334 3.66663 9.33334V22.6667C3.66663 27.4267 4.57329 28.3333 9.33329 28.3333H22.6666C27.4266 28.3333 28.3333 27.4267 28.3333 22.6667V14.6667C28.3333 9.90667 27.4266 9 22.6666 9H18.6666C16.96 9 16.4 8.41334 15.7333 7.53334L13.7333 4.86667C13.04 3.94667 12.84 3.66667 11.3333 3.66667H9.33329Z" fill="black"/>
</svg>
