<svg width="24" height="24" viewBox="0 0 24 24" fill="none" xmlns="http://www.w3.org/2000/svg">
<path d="M12.0012 19.9033C13.0705 19.9034 14.1289 19.6891 15.1138 19.273C16.0988 18.857 16.9904 18.2477 17.7358 17.4811C18.4812 16.7146 19.0654 15.8063 19.4538 14.8101C19.8421 13.8139 20.0268 12.7499 19.9969 11.6811C18.8783 12.4596 17.535 12.8493 16.1734 12.7903C14.8118 12.7312 13.5073 12.2266 12.4604 11.3541C11.4134 10.4816 10.6819 9.28943 10.3784 7.96081C10.0748 6.63218 10.216 5.24063 10.7801 4.00002C8.78787 4.30704 6.98499 5.35499 5.73222 6.93422C4.47944 8.51345 3.86917 10.5075 4.02349 12.5173C4.17781 14.5272 5.08534 16.4047 6.56452 17.7742C8.0437 19.1436 9.98543 19.9041 12.0012 19.9033Z" stroke="white" stroke-width="2" stroke-linecap="round" stroke-linejoin="round"/>
</svg>
