<svg width="36" height="50" viewBox="0 0 36 50" fill="none" xmlns="http://www.w3.org/2000/svg">
<path d="M19.0147 31.4514V24.5977C20.873 24.8843 21.8061 25.9253 21.8061 27.7017V27.8655H24.127C24.0743 24.5253 22.2033 22.8591 19.0147 22.6512V20.7441H16.6938V22.689C13.778 23.1126 11.4986 24.7741 11.4986 28.0025C11.4986 31.231 13.6408 32.4688 16.6938 33.1381V40.6816C14.5803 40.3383 13.4318 39.0705 13.4318 36.7886C13.4318 36.7067 13.4318 36.598 13.459 36.4342H11.1094V36.7067C11.1094 40.3981 13.3712 42.3273 16.6922 42.6439V44.9478H19.0131V42.6328C22.5574 42.2328 24.5959 40.1556 24.5959 36.9807C24.5959 33.2672 22.0039 32.3082 19.0131 31.4546L19.0147 31.4514ZM16.6938 30.9317C15.1099 30.4924 13.7923 29.6908 13.7923 27.8104C13.7923 26.1316 14.8898 24.9851 16.6938 24.6607V30.9317ZM19.0147 40.7257V33.6657C20.7406 34.1177 22.2479 34.9996 22.2479 37.0327C22.2479 39.0658 20.94 40.4595 19.0147 40.7257Z" fill="url(#paint0_linear_4055_434)"/>
<path d="M31.5066 6.9942C30.3788 6.9942 29.4648 7.89659 29.4648 9.01C29.4648 10.1234 30.3788 11.0258 31.5066 11.0258C32.6343 11.0258 33.5483 10.1234 33.5483 9.01C33.5483 7.89659 32.6343 6.9942 31.5066 6.9942Z" fill="url(#paint1_linear_4055_434)"/>
<path d="M23.4952 10.6477C20.2971 9.84769 17.8518 4.86646 17.8518 4.86646C17.8518 4.86646 15.4065 9.84611 12.2083 10.6477C9.01015 11.4477 7.23162 10.9816 5.72266 10.3816C5.72266 10.3816 8.32426 14.8951 8.32426 17.1849H27.3777C27.3777 14.8951 29.9793 10.3816 29.9793 10.3816C28.4704 10.9816 26.6918 11.4493 23.4936 10.6477H23.4952Z" fill="url(#paint2_linear_4055_434)"/>
<path d="M6.08911 9.78161C6.52063 8.75305 6.02591 7.57388 4.98413 7.14784C3.94236 6.7218 2.74801 7.21023 2.31649 8.23878C1.88497 9.26733 2.37969 10.4465 3.42147 10.8725C4.46324 11.2986 5.65759 10.8102 6.08911 9.78161Z" fill="url(#paint3_linear_4055_434)"/>
<path d="M19.3038 4.27609C20.1012 3.48888 20.1012 2.21254 19.3038 1.42532C18.5065 0.638103 17.2137 0.638104 16.4164 1.42532C15.619 2.21254 15.619 3.48888 16.4164 4.27609C17.2137 5.06331 18.5065 5.06331 19.3038 4.27609Z" fill="url(#paint4_linear_4055_434)"/>
<path d="M14.7893 18.9771H8.33398V20.311H14.7893V18.9771Z" fill="url(#paint5_linear_4055_434)"/>
<path d="M27.389 18.9771H20.9336V20.311H27.389V18.9771Z" fill="url(#paint6_linear_4055_434)"/>
<path d="M30.6383 31.0719H32.7311V29.5585H30.6383C30.2156 29.5585 29.8711 29.8971 29.8711 30.316C29.8711 30.7349 30.214 31.0735 30.6383 31.0735V31.0719Z" fill="url(#paint7_linear_4055_434)"/>
<path d="M30.6383 34.272H32.7311V32.7586H30.6383C30.2156 32.7586 29.8711 33.0972 29.8711 33.5161C29.8711 33.935 30.214 34.2736 30.6383 34.2736V34.272Z" fill="url(#paint8_linear_4055_434)"/>
<path d="M30.652 27.8829H31.6681C32.0748 27.8829 32.4034 27.5585 32.4034 27.1569V27.1269C32.4034 26.7096 32.0605 26.3694 31.6362 26.3694H30.652C30.2293 26.3694 29.8848 26.708 29.8848 27.1269C29.8848 27.5459 30.2277 27.8844 30.652 27.8844V27.8829Z" fill="url(#paint9_linear_4055_434)"/>
<path d="M32.4034 36.7461V36.7162C32.4034 36.2988 32.0605 35.9587 31.6362 35.9587H30.652C30.2293 35.9587 29.8848 36.2973 29.8848 36.7162C29.8848 37.1351 30.2277 37.4737 30.652 37.4737H31.6681C32.0748 37.4737 32.4034 37.1493 32.4034 36.7477V36.7461Z" fill="url(#paint10_linear_4055_434)"/>
<path d="M30.652 40.6611C31.0757 40.6611 31.4192 40.322 31.4192 39.9036C31.4192 39.4853 31.0757 39.1461 30.652 39.1461C30.2283 39.1461 29.8848 39.4853 29.8848 39.9036C29.8848 40.322 30.2283 40.6611 30.652 40.6611Z" fill="url(#paint11_linear_4055_434)"/>
<path d="M5.06196 26.3694H4.07779C3.65509 26.3694 3.31055 26.708 3.31055 27.1269V27.1569C3.31055 27.5584 3.63914 27.8829 4.04589 27.8829H5.06196C5.48467 27.8829 5.82921 27.5443 5.82921 27.1254C5.82921 26.7064 5.48626 26.3679 5.06196 26.3679V26.3694Z" fill="url(#paint12_linear_4055_434)"/>
<path d="M5.06196 35.9586H4.07779C3.65509 35.9586 3.31055 36.2972 3.31055 36.7161V36.746C3.31055 37.1476 3.63914 37.472 4.04589 37.472H5.06196C5.48467 37.472 5.82921 37.1334 5.82921 36.7145C5.82921 36.2956 5.48626 35.957 5.06196 35.957V35.9586Z" fill="url(#paint13_linear_4055_434)"/>
<path d="M5.06412 39.1461C4.64142 39.1461 4.29688 39.4847 4.29688 39.9036C4.29688 40.3225 4.63982 40.6611 5.06412 40.6611C5.48841 40.6611 5.83136 40.3225 5.83136 39.9036C5.83136 39.4847 5.48841 39.1461 5.06412 39.1461Z" fill="url(#paint14_linear_4055_434)"/>
<path d="M30.5748 15.5172C30.3738 15.9817 30.1409 16.6825 29.9686 17.6794C32.0534 18.7598 33.4795 20.9173 33.4795 23.3992V41.3383C33.4795 44.899 30.5461 47.7951 26.9396 47.7951H17.8555V49.9999H26.9396C31.7855 49.9999 35.7126 46.1227 35.7126 41.3383V23.3992C35.7126 19.8968 33.6055 16.881 30.5748 15.5172Z" fill="url(#paint15_linear_4055_434)"/>
<path d="M2.23314 41.3383V34.272H4.87462C5.40898 34.272 5.84125 33.9334 5.84125 33.5145C5.84125 33.0956 5.40898 32.757 4.87462 32.757H0V41.3368C0 46.1211 3.92713 50 8.77304 50H17.8571V47.7952H8.77304C5.16652 47.7952 2.23314 44.8991 2.23314 41.3383Z" fill="url(#paint16_linear_4055_434)"/>
<path d="M2.23314 26.3694H0V27.8829H2.23314V26.3694Z" fill="url(#paint17_linear_4055_434)"/>
<path d="M2.23314 23.3992C2.23314 20.9173 3.65916 18.7598 5.74395 17.6794C5.57168 16.681 5.33879 15.9817 5.13781 15.5172C2.10712 16.881 0 19.8968 0 23.3992V24.6953H2.23314V23.3992Z" fill="url(#paint18_linear_4055_434)"/>
<path d="M2.23314 31.0719H5.07401C5.49671 31.0719 5.84125 30.7334 5.84125 30.3144C5.84125 29.8955 5.4983 29.5569 5.07401 29.5569H0V31.0814H2.23314V31.0704V31.0719Z" fill="url(#paint19_linear_4055_434)"/>
<path d="M8.13281 15.8495C8.25883 16.3362 8.33539 16.7929 8.33539 17.1834H27.3888C27.3888 16.7929 27.4654 16.3362 27.5914 15.8495H8.13281Z" fill="url(#paint20_linear_4055_434)"/>
<path d="M8.13281 15.8495C8.25883 16.3362 8.33539 16.7929 8.33539 17.1834H27.3888C27.3888 16.7929 27.4654 16.3362 27.5914 15.8495H8.13281Z" fill="url(#paint21_linear_4055_434)"/>
<defs>
<linearGradient id="paint0_linear_4055_434" x1="17.7588" y1="20.9652" x2="17.7588" y2="45.8632" gradientUnits="userSpaceOnUse">
<stop stop-color="#16128B"/>
<stop offset="1" stop-color="#47E1DD"/>
</linearGradient>
<linearGradient id="paint1_linear_4055_434" x1="31.4782" y1="7.03103" x2="31.4782" y2="11.1783" gradientUnits="userSpaceOnUse">
<stop stop-color="#16128B"/>
<stop offset="1" stop-color="#47E1DD"/>
</linearGradient>
<linearGradient id="paint2_linear_4055_434" x1="17.6823" y1="4.97898" x2="17.6823" y2="17.6508" gradientUnits="userSpaceOnUse">
<stop stop-color="#16128B"/>
<stop offset="1" stop-color="#47E1DD"/>
</linearGradient>
<linearGradient id="paint3_linear_4055_434" x1="2.34008" y1="8.27878" x2="6.20626" y2="9.9008" gradientUnits="userSpaceOnUse">
<stop stop-color="#16128B"/>
<stop offset="1" stop-color="#47E1DD"/>
</linearGradient>
<linearGradient id="paint4_linear_4055_434" x1="16.4227" y1="1.47119" x2="19.355" y2="4.44121" gradientUnits="userSpaceOnUse">
<stop stop-color="#16128B"/>
<stop offset="1" stop-color="#47E1DD"/>
</linearGradient>
<linearGradient id="paint5_linear_4055_434" x1="11.5168" y1="18.9893" x2="11.5168" y2="20.3615" gradientUnits="userSpaceOnUse">
<stop stop-color="#16128B"/>
<stop offset="1" stop-color="#47E1DD"/>
</linearGradient>
<linearGradient id="paint6_linear_4055_434" x1="24.1164" y1="18.9893" x2="24.1164" y2="20.3615" gradientUnits="userSpaceOnUse">
<stop stop-color="#16128B"/>
<stop offset="1" stop-color="#47E1DD"/>
</linearGradient>
<linearGradient id="paint7_linear_4055_434" x1="31.2812" y1="29.5723" x2="31.2812" y2="31.1308" gradientUnits="userSpaceOnUse">
<stop stop-color="#16128B"/>
<stop offset="1" stop-color="#47E1DD"/>
</linearGradient>
<linearGradient id="paint8_linear_4055_434" x1="31.2812" y1="32.7724" x2="31.2812" y2="34.3309" gradientUnits="userSpaceOnUse">
<stop stop-color="#16128B"/>
<stop offset="1" stop-color="#47E1DD"/>
</linearGradient>
<linearGradient id="paint9_linear_4055_434" x1="31.1266" y1="26.3833" x2="31.1266" y2="27.9417" gradientUnits="userSpaceOnUse">
<stop stop-color="#16128B"/>
<stop offset="1" stop-color="#47E1DD"/>
</linearGradient>
<linearGradient id="paint10_linear_4055_434" x1="31.1266" y1="35.9725" x2="31.1266" y2="37.531" gradientUnits="userSpaceOnUse">
<stop stop-color="#16128B"/>
<stop offset="1" stop-color="#47E1DD"/>
</linearGradient>
<linearGradient id="paint11_linear_4055_434" x1="30.6413" y1="39.16" x2="30.6413" y2="40.7184" gradientUnits="userSpaceOnUse">
<stop stop-color="#16128B"/>
<stop offset="1" stop-color="#47E1DD"/>
</linearGradient>
<linearGradient id="paint12_linear_4055_434" x1="4.55236" y1="26.3817" x2="4.55236" y2="27.9402" gradientUnits="userSpaceOnUse">
<stop stop-color="#16128B"/>
<stop offset="1" stop-color="#47E1DD"/>
</linearGradient>
<linearGradient id="paint13_linear_4055_434" x1="4.55236" y1="35.9709" x2="4.55236" y2="37.5293" gradientUnits="userSpaceOnUse">
<stop stop-color="#16128B"/>
<stop offset="1" stop-color="#47E1DD"/>
</linearGradient>
<linearGradient id="paint14_linear_4055_434" x1="5.05344" y1="39.16" x2="5.05344" y2="40.7184" gradientUnits="userSpaceOnUse">
<stop stop-color="#16128B"/>
<stop offset="1" stop-color="#47E1DD"/>
</linearGradient>
<linearGradient id="paint15_linear_4055_434" x1="26.6598" y1="15.8321" x2="26.6598" y2="51.304" gradientUnits="userSpaceOnUse">
<stop stop-color="#16128B"/>
<stop offset="1" stop-color="#47E1DD"/>
</linearGradient>
<linearGradient id="paint16_linear_4055_434" x1="8.80435" y1="32.9145" x2="8.80435" y2="50.6521" gradientUnits="userSpaceOnUse">
<stop stop-color="#16128B"/>
<stop offset="1" stop-color="#47E1DD"/>
</linearGradient>
<linearGradient id="paint17_linear_4055_434" x1="1.10104" y1="26.3833" x2="1.10104" y2="27.9401" gradientUnits="userSpaceOnUse">
<stop stop-color="#16128B"/>
<stop offset="1" stop-color="#47E1DD"/>
</linearGradient>
<linearGradient id="paint18_linear_4055_434" x1="2.83202" y1="15.601" x2="2.83202" y2="25.0425" gradientUnits="userSpaceOnUse">
<stop stop-color="#16128B"/>
<stop offset="1" stop-color="#47E1DD"/>
</linearGradient>
<linearGradient id="paint19_linear_4055_434" x1="2.87999" y1="29.5709" x2="2.87999" y2="31.139" gradientUnits="userSpaceOnUse">
<stop stop-color="#16128B"/>
<stop offset="1" stop-color="#47E1DD"/>
</linearGradient>
<linearGradient id="paint20_linear_4055_434" x1="17.7268" y1="15.8617" x2="17.7268" y2="17.2339" gradientUnits="userSpaceOnUse">
<stop stop-color="#16128B"/>
<stop offset="1" stop-color="#47E1DD"/>
</linearGradient>
<linearGradient id="paint21_linear_4055_434" x1="17.7268" y1="15.8617" x2="17.7268" y2="17.2339" gradientUnits="userSpaceOnUse">
<stop stop-color="#16128B"/>
<stop offset="1" stop-color="#47E1DD"/>
</linearGradient>
</defs>
</svg>
