<svg width="40" height="56" viewBox="0 0 40 56" fill="none" xmlns="http://www.w3.org/2000/svg">
<path d="M21.3005 35.2257V27.5495C23.3818 27.8705 24.4269 29.0364 24.4269 31.026V31.2094H27.0263C26.9673 27.4683 24.8717 25.6022 21.3005 25.3694V23.2334H18.7011V25.4117C15.4354 25.8862 12.8824 27.747 12.8824 31.3629C12.8824 34.9787 15.2817 36.3651 18.7011 37.1147V45.5634C16.334 45.1789 15.0477 43.759 15.0477 41.2033C15.0477 41.1115 15.0477 40.9898 15.0781 40.8064H12.4465V41.1115C12.4465 45.246 14.9798 47.4066 18.6993 47.7612V50.3416H21.2987V47.7488C25.2683 47.3008 27.5515 44.9743 27.5515 41.4184C27.5515 37.2593 24.6484 36.1852 21.2987 35.2292L21.3005 35.2257ZM18.7011 34.6436C16.9271 34.1515 15.4514 33.2537 15.4514 31.1477C15.4514 29.2674 16.6806 27.9834 18.7011 27.62V34.6436ZM21.3005 45.6128V37.7056C23.2335 38.2118 24.9217 39.1996 24.9217 41.4767C24.9217 43.7538 23.4568 45.3147 21.3005 45.6128Z" fill="white"/>
<path d="M35.2908 7.8335C34.0277 7.8335 33.004 8.84417 33.004 10.0912C33.004 11.3382 34.0277 12.3489 35.2908 12.3489C36.5538 12.3489 37.5775 11.3382 37.5775 10.0912C37.5775 8.84417 36.5538 7.8335 35.2908 7.8335Z" fill="white"/>
<path d="M26.3206 11.9257C22.7386 11.0297 19.9999 5.45068 19.9999 5.45068C19.9999 5.45068 17.2612 11.0279 13.6792 11.9257C10.0973 12.8217 8.10532 12.2996 6.41528 11.6276C6.41528 11.6276 9.32908 16.6827 9.32908 19.2473H30.669C30.669 16.6827 33.5828 11.6276 33.5828 11.6276C31.8927 12.2996 29.9008 12.8235 26.3188 11.9257H26.3206Z" fill="white"/>
<path d="M6.82297 10.9556C7.30627 9.80362 6.75219 8.48294 5.58539 8.00578C4.4186 7.52861 3.08093 8.07566 2.59763 9.22764C2.11433 10.3796 2.66841 11.7003 3.8352 12.1775C5.002 12.6546 6.33966 12.1076 6.82297 10.9556Z" fill="white"/>
<path d="M21.6173 4.78931C22.5103 3.90762 22.5103 2.47812 21.6173 1.59644C20.7242 0.714752 19.2763 0.714752 18.3833 1.59644C17.4903 2.47812 17.4903 3.90762 18.3833 4.7893C19.2763 5.67099 20.7242 5.67099 21.6173 4.78931Z" fill="white"/>
<path d="M16.5609 21.2544H9.33093V22.7484H16.5609V21.2544Z" fill="white"/>
<path d="M30.6708 21.2544H23.4408V22.7484H30.6708V21.2544Z" fill="white"/>
<path d="M34.3171 34.8005H36.661V33.1055H34.3171C33.8436 33.1055 33.4578 33.4847 33.4578 33.9539C33.4578 34.423 33.8419 34.8023 34.3171 34.8023V34.8005Z" fill="white"/>
<path d="M34.3171 38.3845H36.661V36.6895H34.3171C33.8436 36.6895 33.4578 37.0687 33.4578 37.5379C33.4578 38.007 33.8419 38.3863 34.3171 38.3863V38.3845Z" fill="white"/>
<path d="M34.3295 31.2287H35.4675C35.9231 31.2287 36.2911 30.8654 36.2911 30.4156V30.3821C36.2911 29.9147 35.907 29.5337 35.4318 29.5337H34.3295C33.8561 29.5337 33.4702 29.9129 33.4702 30.3821C33.4702 30.8513 33.8543 31.2305 34.3295 31.2305V31.2287Z" fill="white"/>
<path d="M36.2911 41.1558V41.1223C36.2911 40.6549 35.907 40.2739 35.4318 40.2739H34.3295C33.8561 40.2739 33.4702 40.6531 33.4702 41.1223C33.4702 41.5915 33.8543 41.9707 34.3295 41.9707H35.4675C35.9231 41.9707 36.2911 41.6074 36.2911 41.1576V41.1558Z" fill="white"/>
<path d="M34.3295 45.5406C34.8041 45.5406 35.1888 45.1607 35.1888 44.6922C35.1888 44.2236 34.8041 43.8438 34.3295 43.8438C33.8549 43.8438 33.4702 44.2236 33.4702 44.6922C33.4702 45.1607 33.8549 45.5406 34.3295 45.5406Z" fill="white"/>
<path d="M5.67045 29.534H4.56817C4.09475 29.534 3.70886 29.9132 3.70886 30.3824V30.4159C3.70886 30.8657 4.07688 31.229 4.53244 31.229H5.67045C6.14388 31.229 6.52976 30.8498 6.52976 30.3806C6.52976 29.9114 6.14566 29.5322 5.67045 29.5322V29.534Z" fill="white"/>
<path d="M5.67045 40.2737H4.56817C4.09475 40.2737 3.70886 40.653 3.70886 41.1221V41.1556C3.70886 41.6054 4.07688 41.9688 4.53244 41.9688H5.67045C6.14388 41.9688 6.52976 41.5896 6.52976 41.1204C6.52976 40.6512 6.14566 40.272 5.67045 40.272V40.2737Z" fill="white"/>
<path d="M5.67047 43.8438C5.19704 43.8438 4.81116 44.223 4.81116 44.6922C4.81116 45.1613 5.19526 45.5406 5.67047 45.5406C6.14568 45.5406 6.52978 45.1613 6.52978 44.6922C6.52978 44.223 6.14568 43.8438 5.67047 43.8438Z" fill="white"/>
<path d="M34.2456 17.3794C34.0205 17.8997 33.7597 18.6846 33.5668 19.8011C35.9017 21.0111 37.4989 23.4276 37.4989 26.2073V46.2991C37.4989 50.2871 34.2135 53.5308 30.1742 53.5308H20V56.0001H30.1742C35.6016 56.0001 40 51.6576 40 46.2991V26.2073C40 22.2846 37.64 18.9069 34.2456 17.3794Z" fill="white"/>
<path d="M2.50112 46.2991V38.3848H5.45958C6.05806 38.3848 6.54221 38.0056 6.54221 37.5364C6.54221 37.0672 6.05806 36.688 5.45958 36.688H0V46.2973C0 51.6558 4.39839 56.0001 9.82582 56.0001H20V53.5308H9.82582C5.78651 53.5308 2.50112 50.2871 2.50112 46.2991Z" fill="white"/>
<path d="M2.50112 29.5337H0V31.2287H2.50112V29.5337Z" fill="white"/>
<path d="M2.50112 26.2073C2.50112 23.4276 4.09826 21.0111 6.43323 19.8011C6.24028 18.6829 5.97945 17.8997 5.75435 17.3794C2.35998 18.9069 0 22.2846 0 26.2073V27.659H2.50112V26.2073Z" fill="white"/>
<path d="M2.50112 34.8008H5.68289C6.15632 34.8008 6.54221 34.4216 6.54221 33.9524C6.54221 33.4832 6.15811 33.104 5.68289 33.104H0V34.8114H2.50112V34.799V34.8008Z" fill="white"/>
<path d="M9.10413 17.7515C9.24526 18.2965 9.33101 18.808 9.33101 19.2454H30.6709C30.6709 18.808 30.7566 18.2965 30.8978 17.7515H9.10413Z" fill="white"/>
<path d="M9.10413 17.7515C9.24526 18.2965 9.33101 18.808 9.33101 19.2454H30.6709C30.6709 18.808 30.7566 18.2965 30.8978 17.7515H9.10413Z" fill="white"/>
</svg>
