<svg width="32" height="32" viewBox="0 0 32 32" fill="none" xmlns="http://www.w3.org/2000/svg">
<path d="M16.0013 30.4133C15.0813 30.4133 14.2146 29.9467 13.6013 29.1333L11.6013 26.4667C11.5613 26.4133 11.4013 26.3467 11.3346 26.3333H10.668C5.10797 26.3333 1.66797 24.8267 1.66797 17.3333V10.6667C1.66797 4.77332 4.77464 1.66666 10.668 1.66666H21.3346C27.228 1.66666 30.3346 4.77332 30.3346 10.6667V17.3333C30.3346 23.2267 27.228 26.3333 21.3346 26.3333H20.668C20.5613 26.3333 20.468 26.3867 20.4013 26.4667L18.4013 29.1333C17.788 29.9467 16.9213 30.4133 16.0013 30.4133ZM10.668 3.66666C5.89464 3.66666 3.66797 5.89332 3.66797 10.6667V17.3333C3.66797 23.36 5.73463 24.3333 10.668 24.3333H11.3346C12.0146 24.3333 12.788 24.72 13.2013 25.2667L15.2013 27.9333C15.668 28.5467 16.3346 28.5467 16.8013 27.9333L18.8013 25.2667C19.2413 24.68 19.9346 24.3333 20.668 24.3333H21.3346C26.108 24.3333 28.3346 22.1067 28.3346 17.3333V10.6667C28.3346 5.89332 26.108 3.66666 21.3346 3.66666H10.668Z" fill="#292D32"/>
<path d="M22.6654 11.6667H9.33203C8.78536 11.6667 8.33203 11.2133 8.33203 10.6667C8.33203 10.12 8.78536 9.66666 9.33203 9.66666H22.6654C23.212 9.66666 23.6654 10.12 23.6654 10.6667C23.6654 11.2133 23.212 11.6667 22.6654 11.6667Z" fill="#292D32"/>
<path d="M17.332 18.3333H9.33203C8.78536 18.3333 8.33203 17.88 8.33203 17.3333C8.33203 16.7867 8.78536 16.3333 9.33203 16.3333H17.332C17.8787 16.3333 18.332 16.7867 18.332 17.3333C18.332 17.88 17.8787 18.3333 17.332 18.3333Z" fill="#292D32"/>
</svg>
