<svg width="32" height="32" viewBox="0 0 32 32" fill="none" xmlns="http://www.w3.org/2000/svg">
<path d="M19.8523 24.2933H8.13228C7.43895 24.2933 6.7856 24.2267 6.19893 24.0933C5.89227 24.0533 5.51895 23.9466 5.13228 23.8C3.35895 23.1333 1.26562 21.4933 1.26562 17.4133V10.5466C1.26562 6.18663 3.77228 3.68001 8.13228 3.68001H19.8523C23.5323 3.68001 25.9056 5.43997 26.5456 8.63997C26.6656 9.22664 26.719 9.85329 26.719 10.5466V17.4133C26.719 21.8 24.2256 24.2933 19.8523 24.2933ZM8.14559 5.7067C4.86559 5.7067 3.27893 7.29332 3.27893 10.5733V17.44C3.27893 19.8267 4.11895 21.2934 5.83895 21.9467C6.10562 22.04 6.35896 22.1066 6.59896 22.1466C7.10563 22.2533 7.59892 22.3066 8.14559 22.3066H19.8656C23.1456 22.3066 24.7323 20.72 24.7323 17.44V10.5733C24.7323 10.0133 24.6923 9.51998 24.599 9.06665C24.1456 6.79998 22.5989 5.7067 19.8656 5.7067H8.14559Z" fill="#292D32"/>
<path d="M23.8587 28.2933H12.1387C11.0053 28.2933 9.99198 28.1333 9.12532 27.8C7.16532 27.0666 5.8853 25.52 5.4453 23.3066C5.37864 22.9733 5.48533 22.6266 5.72533 22.4C5.96533 22.16 6.312 22.0666 6.64534 22.1466C7.08534 22.24 7.57866 22.2933 8.13866 22.2933H19.8587C23.1387 22.2933 24.7253 20.7067 24.7253 17.4267V10.56C24.7253 9.99997 24.6853 9.50663 24.592 9.0533C24.5253 8.71997 24.632 8.38664 24.8587 8.14664C25.0987 7.90664 25.432 7.79996 25.7653 7.87996C28.9653 8.53329 30.7253 10.9066 30.7253 14.56V21.4267C30.7253 25.8 28.232 28.2933 23.8587 28.2933ZM7.89867 24.2933C8.32534 25.0666 8.96533 25.6133 9.84533 25.9333C10.4853 26.1733 11.2586 26.2933 12.152 26.2933H23.872C27.152 26.2933 28.7386 24.7067 28.7386 21.4267V14.56C28.7386 12.4533 28.0853 11.0533 26.7386 10.32C26.7386 10.4 26.7386 10.48 26.7386 10.56V17.4267C26.7386 21.7867 24.232 24.2933 19.872 24.2933H8.15197C8.05864 24.2933 7.97867 24.2933 7.89867 24.2933Z" fill="#292D32"/>
<path d="M13.9966 18.52C11.5032 18.52 9.47656 16.4933 9.47656 14C9.47656 11.5067 11.5032 9.47998 13.9966 9.47998C16.4899 9.47998 18.5166 11.5067 18.5166 14C18.5166 16.4933 16.4899 18.52 13.9966 18.52ZM13.9966 11.48C12.6099 11.48 11.4766 12.6133 11.4766 14C11.4766 15.3867 12.6099 16.52 13.9966 16.52C15.3832 16.52 16.5166 15.3867 16.5166 14C16.5166 12.6133 15.3832 11.48 13.9966 11.48Z" fill="#292D32"/>
<path d="M6.375 17.9334C5.82833 17.9334 5.375 17.4801 5.375 16.9334V11.0667C5.375 10.5201 5.82833 10.0667 6.375 10.0667C6.92167 10.0667 7.375 10.5201 7.375 11.0667V16.9334C7.375 17.4801 6.935 17.9334 6.375 17.9334Z" fill="#292D32"/>
<path d="M21.6133 17.9334C21.0666 17.9334 20.6133 17.4801 20.6133 16.9334V11.0667C20.6133 10.5201 21.0666 10.0667 21.6133 10.0667C22.1599 10.0667 22.6133 10.5201 22.6133 11.0667V16.9334C22.6133 17.4801 22.1733 17.9334 21.6133 17.9334Z" fill="#292D32"/>
</svg>
