<svg width="20" height="20" viewBox="0 0 20 20" fill="none" xmlns="http://www.w3.org/2000/svg">
<g clip-path="url(#clip0_4045_746)">
<path d="M9.1422 6.88749C8.96762 7.00751 8.82766 7.17132 8.73636 7.36249C8.65891 7.50469 8.52928 7.61128 8.37479 7.65981C8.22031 7.70833 8.05301 7.69501 7.90816 7.62263C7.7633 7.55026 7.65219 7.42449 7.59823 7.27181C7.54426 7.11914 7.55166 6.95148 7.61886 6.80416C7.78553 6.46916 8.04636 6.11582 8.4497 5.84749C8.85636 5.57499 9.37053 5.41666 10.0005 5.41666C10.5489 5.41666 11.1414 5.57916 11.6122 5.93249C11.8747 6.12437 12.0876 6.37618 12.2331 6.66694C12.3786 6.95771 12.4526 7.27903 12.4489 7.60416C12.4489 8.46499 12.0214 9.03749 11.593 9.44999C11.4347 9.60249 11.2605 9.74832 11.1105 9.87332L10.988 9.97582C10.8589 10.0802 10.7377 10.1942 10.6255 10.3167V11.4583C10.6255 11.6241 10.5597 11.7831 10.4425 11.9003C10.3253 12.0175 10.1663 12.0833 10.0005 12.0833C9.83477 12.0833 9.6758 12.0175 9.55859 11.9003C9.44138 11.7831 9.37553 11.6241 9.37553 11.4583V10.2308C9.37553 10.0333 9.43136 9.81082 9.58136 9.61749C9.7647 9.38416 9.98636 9.18666 10.1797 9.02249L10.3322 8.89499L10.333 8.89416C10.4764 8.77499 10.603 8.66916 10.7247 8.55082C11.0314 8.25499 11.1989 7.98749 11.1989 7.60416C11.2028 7.47307 11.174 7.34308 11.1153 7.22584C11.0565 7.1086 10.9696 7.0078 10.8622 6.93249C10.6389 6.76499 10.3205 6.66666 10.0005 6.66666C9.58886 6.66666 9.3222 6.76749 9.1422 6.88749ZM10.8339 14.1667C10.8339 14.3877 10.7461 14.5996 10.5898 14.7559C10.4335 14.9122 10.2215 15 10.0005 15C9.77952 15 9.56755 14.9122 9.41127 14.7559C9.25499 14.5996 9.1672 14.3877 9.1672 14.1667C9.1672 13.9456 9.25499 13.7337 9.41127 13.5774C9.56755 13.4211 9.77952 13.3333 10.0005 13.3333C10.2215 13.3333 10.4335 13.4211 10.5898 13.5774C10.7461 13.7337 10.8339 13.9456 10.8339 14.1667Z" fill="#B7B7B7"/>
<path d="M10.0007 0.833344C15.0632 0.833344 19.1673 4.93751 19.1673 10C19.1673 15.0625 15.0632 19.1667 10.0007 19.1667C4.93815 19.1667 0.833984 15.0625 0.833984 10C0.833984 4.93751 4.93815 0.833344 10.0007 0.833344ZM2.08398 10C2.08398 12.0996 2.91806 14.1133 4.40272 15.5979C5.88739 17.0826 7.90102 17.9167 10.0007 17.9167C12.1003 17.9167 14.1139 17.0826 15.5986 15.5979C17.0832 14.1133 17.9173 12.0996 17.9173 10C17.9173 7.90038 17.0832 5.88674 15.5986 4.40208C14.1139 2.91742 12.1003 2.08334 10.0007 2.08334C7.90102 2.08334 5.88739 2.91742 4.40272 4.40208C2.91806 5.88674 2.08398 7.90038 2.08398 10Z" fill="#B7B7B7"/>
</g>
<defs>
<clipPath id="clip0_4045_746">
<rect width="20" height="20" fill="white"/>
</clipPath>
</defs>
</svg>
