<svg width="32" height="32" viewBox="0 0 32 32" fill="none" xmlns="http://www.w3.org/2000/svg">
<path d="M14.6252 11.02C14.3458 11.212 14.1219 11.4741 13.9758 11.78C13.8519 12.0075 13.6445 12.1781 13.3973 12.2557C13.1501 12.3333 12.8825 12.312 12.6507 12.1962C12.4189 12.0804 12.2412 11.8792 12.1548 11.6349C12.0685 11.3906 12.0803 11.1224 12.1878 10.8867C12.4545 10.3507 12.8718 9.78532 13.5172 9.35599C14.1678 8.91999 14.9905 8.66666 15.9985 8.66666C16.8758 8.66666 17.8238 8.92666 18.5772 9.49199C18.9972 9.799 19.3378 10.2019 19.5706 10.6671C19.8034 11.1323 19.9218 11.6464 19.9158 12.1667C19.9158 13.544 19.2318 14.46 18.5465 15.12C18.2932 15.364 18.0145 15.5973 17.7745 15.7973L17.5785 15.9613C17.3719 16.1284 17.178 16.3107 16.9985 16.5067V18.3333C16.9985 18.5985 16.8931 18.8529 16.7056 19.0404C16.5181 19.228 16.2637 19.3333 15.9985 19.3333C15.7333 19.3333 15.4789 19.228 15.2914 19.0404C15.1039 18.8529 14.9985 18.5985 14.9985 18.3333V16.3693C14.9985 16.0533 15.0878 15.6973 15.3278 15.388C15.6212 15.0147 15.9758 14.6987 16.2852 14.436L16.5292 14.232L16.5305 14.2307C16.7598 14.04 16.9625 13.8707 17.1572 13.6813C17.6478 13.208 17.9158 12.78 17.9158 12.1667C17.9221 11.9569 17.8761 11.7489 17.7821 11.5614C17.6881 11.3738 17.5489 11.2125 17.3772 11.092C17.0198 10.824 16.5105 10.6667 15.9985 10.6667C15.3398 10.6667 14.9132 10.828 14.6252 11.02ZM17.3318 22.6667C17.3318 23.0203 17.1914 23.3594 16.9413 23.6095C16.6913 23.8595 16.3521 24 15.9985 24C15.6449 24 15.3057 23.8595 15.0557 23.6095C14.8056 23.3594 14.6652 23.0203 14.6652 22.6667C14.6652 22.313 14.8056 21.9739 15.0557 21.7238C15.3057 21.4738 15.6449 21.3333 15.9985 21.3333C16.3521 21.3333 16.6913 21.4738 16.9413 21.7238C17.1914 21.9739 17.3318 22.313 17.3318 22.6667Z" fill="black"/>
<path d="M15.9987 1.33334C24.0987 1.33334 30.6654 7.90001 30.6654 16C30.6654 24.1 24.0987 30.6667 15.9987 30.6667C7.8987 30.6667 1.33203 24.1 1.33203 16C1.33203 7.90001 7.8987 1.33334 15.9987 1.33334ZM3.33203 16C3.33203 19.3594 4.66655 22.5812 7.04201 24.9567C9.41747 27.3322 12.6393 28.6667 15.9987 28.6667C19.3581 28.6667 22.5799 27.3322 24.9554 24.9567C27.3308 22.5812 28.6654 19.3594 28.6654 16C28.6654 12.6406 27.3308 9.41879 24.9554 7.04332C22.5799 4.66786 19.3581 3.33334 15.9987 3.33334C12.6393 3.33334 9.41747 4.66786 7.04201 7.04332C4.66655 9.41879 3.33203 12.6406 3.33203 16Z" fill="black"/>
</svg>
