<svg width="32" height="33" viewBox="0 0 32 33" fill="none" xmlns="http://www.w3.org/2000/svg">
<path d="M25.8933 16.1667H21.3333C20.7866 16.1667 20.3333 15.7133 20.3333 15.1667V5.84665C20.3333 4.85999 20.7199 3.93999 21.4133 3.24666C22.1066 2.55333 23.0266 2.16666 24.0133 2.16666H24.0266C25.6933 2.17999 27.2666 2.83332 28.4666 4.01999C29.6666 5.23332 30.3199 6.83332 30.3199 8.49999V11.7267C30.3333 14.38 28.5466 16.1667 25.8933 16.1667ZM22.3333 14.1667H25.8933C27.4399 14.1667 28.3333 13.2733 28.3333 11.7267V8.49999C28.3333 7.35332 27.8799 6.25999 27.0666 5.43332C26.2533 4.63332 25.1599 4.17999 24.0266 4.16666C24.0266 4.16666 24.0266 4.16666 24.0133 4.16666C23.5733 4.16666 23.1466 4.33999 22.8266 4.65999C22.5066 4.97999 22.3333 5.39332 22.3333 5.84665V14.1667Z" fill="#292D32"/>
<path d="M12.0001 31.6067C11.3734 31.6067 10.7867 31.3667 10.3467 30.9133L8.13341 28.6867C8.01341 28.5667 7.82675 28.5533 7.69341 28.66L5.40008 30.3667C4.69342 30.9 3.76008 30.9933 2.96008 30.5933C2.16008 30.1933 1.66675 29.3933 1.66675 28.5V8.49999C1.66675 4.47332 3.97341 2.16666 8.00008 2.16666H24.0001C24.5467 2.16666 25.0001 2.61999 25.0001 3.16666C25.0001 3.71332 24.5467 4.16666 24.0001 4.16666C23.0801 4.16666 22.3334 4.91332 22.3334 5.83332V28.5C22.3334 29.3933 21.8401 30.1933 21.0401 30.5933C20.2401 30.9933 19.3067 30.9133 18.6001 30.38L16.3201 28.6733C16.1867 28.5667 16.0001 28.5933 15.8934 28.7L13.6534 30.94C13.2134 31.3667 12.6267 31.6067 12.0001 31.6067ZM7.88008 26.5933C8.49341 26.5933 9.09341 26.82 9.54675 27.2867L11.7601 29.5133C11.8401 29.5933 11.9467 29.6067 12.0001 29.6067C12.0534 29.6067 12.1601 29.5933 12.2401 29.5133L14.4801 27.2733C15.3067 26.4467 16.6134 26.3667 17.5334 27.0733L19.8001 28.7667C19.9467 28.8733 20.0801 28.8333 20.1467 28.7933C20.2134 28.7533 20.3334 28.6733 20.3334 28.5V5.83332C20.3334 5.23332 20.4801 4.65999 20.7334 4.16666H8.00008C5.04008 4.16666 3.66675 5.53999 3.66675 8.49999V28.5C3.66675 28.6867 3.78675 28.7667 3.85342 28.8067C3.93341 28.8467 4.06675 28.8733 4.20008 28.7667L6.48008 27.06C6.89341 26.7533 7.38675 26.5933 7.88008 26.5933Z" fill="#292D32"/>
<path d="M16 18.8467H12C11.4533 18.8467 11 18.3933 11 17.8467C11 17.3 11.4533 16.8467 12 16.8467H16C16.5467 16.8467 17 17.3 17 17.8467C17 18.3933 16.5467 18.8467 16 18.8467Z" fill="#292D32"/>
<path d="M16 13.5133H12C11.4533 13.5133 11 13.06 11 12.5133C11 11.9667 11.4533 11.5133 12 11.5133H16C16.5467 11.5133 17 11.9667 17 12.5133C17 13.06 16.5467 13.5133 16 13.5133Z" fill="#292D32"/>
<path d="M7.96029 13.8467C7.22695 13.8467 6.62695 13.2467 6.62695 12.5134C6.62695 11.78 7.22695 11.18 7.96029 11.18C8.69362 11.18 9.29362 11.78 9.29362 12.5134C9.29362 13.2467 8.69362 13.8467 7.96029 13.8467Z" fill="#292D32"/>
<path d="M7.96029 19.18C7.22695 19.18 6.62695 18.58 6.62695 17.8467C6.62695 17.1133 7.22695 16.5133 7.96029 16.5133C8.69362 16.5133 9.29362 17.1133 9.29362 17.8467C9.29362 18.58 8.69362 19.18 7.96029 19.18Z" fill="#292D32"/>
</svg>
