<svg width="32" height="32" viewBox="0 0 32 32" fill="none" xmlns="http://www.w3.org/2000/svg">
<path fill-rule="evenodd" clip-rule="evenodd" d="M2.66663 16C2.11434 16 1.66663 16.4477 1.66663 17V18C1.66663 25.24 4.75996 28.3333 12 28.3333H20C27.24 28.3333 30.3333 25.24 30.3333 18V17C30.3333 16.4477 29.8856 16 29.3333 16C28.781 16 28.3333 16.4477 28.3333 17V18C28.3333 24.1467 26.1466 26.3333 20 26.3333H12C5.85329 26.3333 3.66663 24.1467 3.66663 18V17C3.66663 16.4477 3.21891 16 2.66663 16Z" fill="#6A6A6A"/>
<path d="M19.9998 9.68001C19.7465 9.68001 19.4932 9.58668 19.2932 9.38668L15.9998 6.09336L12.7065 9.38668C12.3198 9.77335 11.6798 9.77335 11.2932 9.38668C10.9065 9.00001 10.9065 8.36002 11.2932 7.97335L15.2932 3.97335C15.6798 3.58668 16.3198 3.58668 16.7065 3.97335L20.7065 7.97335C21.0932 8.36002 21.0932 9.00001 20.7065 9.38668C20.5065 9.58668 20.2532 9.68001 19.9998 9.68001Z" fill="#6A6A6A"/>
<path d="M16 20C15.4533 20 15 19.4274 15 18.7368V5.26316C15 4.57263 15.4533 4 16 4C16.5467 4 17 4.57263 17 5.26316V18.7368C17 19.4442 16.5467 20 16 20Z" fill="#6A6A6A"/>
</svg>
