<svg width="32" height="32" viewBox="0 0 32 32" fill="none" xmlns="http://www.w3.org/2000/svg">
<path d="M22.668 28.3334H9.33463C4.46797 28.3334 1.66797 25.5334 1.66797 20.6667V11.3334C1.66797 6.46669 4.46797 3.66669 9.33463 3.66669H22.668C27.5346 3.66669 30.3346 6.46669 30.3346 11.3334V20.6667C30.3346 25.5334 27.5346 28.3334 22.668 28.3334ZM9.33463 5.66669C5.5213 5.66669 3.66797 7.52002 3.66797 11.3334V20.6667C3.66797 24.48 5.5213 26.3334 9.33463 26.3334H22.668C26.4813 26.3334 28.3346 24.48 28.3346 20.6667V11.3334C28.3346 7.52002 26.4813 5.66669 22.668 5.66669H9.33463Z" fill="#292D32"/>
<path d="M15.9984 17.16C14.8784 17.16 13.7451 16.8133 12.8784 16.1066L8.70507 12.7733C8.2784 12.4266 8.19841 11.8 8.54507 11.3733C8.89174 10.9466 9.51841 10.8666 9.94508 11.2133L14.1184 14.5466C15.1317 15.36 16.8517 15.36 17.8651 14.5466L22.0384 11.2133C22.4651 10.8666 23.1051 10.9333 23.4384 11.3733C23.7851 11.8 23.7184 12.44 23.2784 12.7733L19.1051 16.1066C18.2517 16.8133 17.1184 17.16 15.9984 17.16Z" fill="#292D32"/>
</svg>
