<svg width="30" height="30" viewBox="0 0 30 30" fill="none" xmlns="http://www.w3.org/2000/svg">
<g clip-path="url(#clip0_4057_278)">
<path fill-rule="evenodd" clip-rule="evenodd" d="M14.9721 3.21451C14.0764 3.19833 13.1862 3.35896 12.3525 3.68721C11.5189 4.01546 10.7582 4.50488 10.1139 5.12746C9.46961 5.75004 8.95443 6.49356 8.59783 7.31547C8.24124 8.13738 8.05022 9.02155 8.03571 9.91737V19.2859C8.03571 19.8543 7.80995 20.3993 7.40809 20.8012C7.00622 21.203 6.46118 21.4288 5.89286 21.4288H3.21429C2.3618 21.4288 1.54424 21.0901 0.941442 20.4874C0.338647 19.8846 0 19.067 0 18.2145L0 13.9288C0 13.0763 0.338647 12.2587 0.941442 11.656C1.54424 11.0532 2.3618 10.7145 3.21429 10.7145H4.82143V9.87879C4.84098 8.56178 5.11978 7.26152 5.64191 6.05227C6.16404 4.84301 6.91927 3.74846 7.86447 2.83112C8.80967 1.91378 9.92632 1.19163 11.1506 0.705897C12.375 0.220167 13.683 -0.0196232 15 0.000223002C16.317 -0.0196232 17.625 0.220167 18.8494 0.705897C20.0737 1.19163 21.1903 1.91378 22.1355 2.83112C23.0807 3.74846 23.836 4.84301 24.3581 6.05227C24.8802 7.26152 25.159 8.56178 25.1786 9.87879V10.7145H26.7857C27.6382 10.7145 28.4558 11.0532 29.0586 11.656C29.6614 12.2587 30 13.0763 30 13.9288V18.2145C30 19.067 29.6614 19.8846 29.0586 20.4874C28.4558 21.0901 27.6382 21.4288 26.7857 21.4288H25.1786V22.5002C25.1788 23.9483 24.6459 25.3457 23.6816 26.4259C22.7172 27.5061 21.3888 28.1934 19.95 28.3566C19.6706 28.8555 19.2631 29.2708 18.7697 29.5598C18.2762 29.8487 17.7147 30.0007 17.1429 30.0002H13.9286C13.0761 30.0002 12.2585 29.6616 11.6557 29.0588C11.0529 28.456 10.7143 27.6384 10.7143 26.7859C10.7143 25.9335 11.0529 25.1159 11.6557 24.5131C12.2585 23.9103 13.0761 23.5717 13.9286 23.5717H17.1429C18.3043 23.5717 19.3221 24.1867 19.8857 25.1102C20.4763 24.9745 21.0035 24.6424 21.381 24.1684C21.7586 23.6943 21.9642 23.1062 21.9643 22.5002V9.91522C21.9496 9.01479 21.7566 8.12621 21.3963 7.30084C21.0361 6.47546 20.5159 5.72967 19.8657 5.10658C19.2155 4.48349 18.4483 3.99546 17.6083 3.6707C16.7684 3.34593 15.8724 3.19088 14.9721 3.21451Z" fill="#B7B7B7"/>
</g>
<defs>
<clipPath id="clip0_4057_278">
<rect width="30" height="30" fill="white"/>
</clipPath>
</defs>
</svg>
