<svg width="28" height="28" viewBox="0 0 28 28" fill="none" xmlns="http://www.w3.org/2000/svg">
<g clip-path="url(#clip0_4055_340)">
<path d="M19.6008 3.73333V8.4C19.6008 9.88521 19.0108 11.3096 17.9606 12.3598C16.9104 13.41 15.486 14 14.0008 14C12.5156 14 11.0912 13.41 10.041 12.3598C8.99078 11.3096 8.40078 9.88521 8.40078 8.4V3.73333M2.80078 2.8V25.2C2.80078 25.6951 2.99745 26.1699 3.34752 26.5199C3.69758 26.87 4.17238 27.0667 4.66745 27.0667H23.3341C23.8292 27.0667 24.304 26.87 24.654 26.5199C25.0041 26.1699 25.2008 25.6951 25.2008 25.2V2.8C25.2008 2.30493 25.0041 1.83014 24.654 1.48007C24.304 1.13 23.8292 0.933334 23.3341 0.933334H4.66745C4.17238 0.933334 3.69758 1.13 3.34752 1.48007C2.99745 1.83014 2.80078 2.30493 2.80078 2.8Z" stroke="black" stroke-width="2"/>
</g>
<defs>
<clipPath id="clip0_4055_340">
<rect width="28" height="28" fill="white"/>
</clipPath>
</defs>
</svg>
