<svg width="32" height="32" viewBox="0 0 32 32" fill="none" xmlns="http://www.w3.org/2000/svg">
<path d="M31.1634 2.23606C31.0296 2.12053 30.8668 2.04371 30.6926 2.0139C30.5184 1.98409 30.3394 2.00242 30.1748 2.06691L2.07774 13.0626C1.73599 13.1963 1.44685 13.4373 1.25374 13.7493C1.06063 14.0614 0.973978 14.4277 1.00679 14.7932C1.03961 15.1587 1.19012 15.5037 1.43573 15.7764C1.68134 16.0491 2.00878 16.2347 2.36889 16.3054L9.87217 17.7792V26.124C9.87233 26.5109 9.98808 26.8889 10.2046 27.2095C10.4211 27.5301 10.7285 27.7787 11.0873 27.9234C11.4461 28.068 11.8399 28.1022 12.2183 28.0215C12.5966 27.9407 12.9422 27.7488 13.2107 27.4702L16.9041 23.6395L22.6688 28.693C23.0207 29.0044 23.4743 29.1765 23.9443 29.1769C24.1495 29.1765 24.3534 29.1442 24.5488 29.0812C24.869 28.9799 25.1571 28.7964 25.3843 28.549C25.6115 28.3016 25.7699 27.9989 25.8437 27.6712L31.4753 3.18852C31.5149 3.01641 31.5068 2.83675 31.4518 2.66891C31.3968 2.50106 31.2971 2.35141 31.1634 2.23606ZM2.66974 14.668C2.66443 14.6537 2.66443 14.638 2.66974 14.6237C2.67599 14.6188 2.68302 14.6151 2.69054 14.6126L24.833 5.94472L10.5113 16.2042L2.69054 14.6736L2.66974 14.668ZM12.0128 26.3139C11.9746 26.3536 11.9254 26.381 11.8716 26.3926C11.8178 26.4042 11.7617 26.3995 11.7105 26.3791C11.6594 26.3588 11.6155 26.3236 11.5843 26.2782C11.5532 26.2327 11.5364 26.1791 11.5359 26.124V18.9299L15.6521 22.5346L12.0128 26.3139ZM24.223 27.2955C24.2127 27.3424 24.1901 27.3857 24.1574 27.4208C24.1247 27.4559 24.0832 27.4816 24.0372 27.4952C23.9902 27.5116 23.9397 27.5152 23.8909 27.5054C23.8422 27.4957 23.7969 27.473 23.7599 27.4397L12.0405 17.1594L29.4206 4.70388L24.223 27.2955Z" fill="black"/>
</svg>
