<svg width="30" height="26" viewBox="0 0 30 26" fill="none" xmlns="http://www.w3.org/2000/svg">
<path d="M27.4424 0.720707C27.4424 0.720707 30.2176 -0.361436 29.9863 2.26663C29.9092 3.34879 29.2154 7.13629 28.6758 11.233L26.8257 23.3685C26.8257 23.3685 26.6715 25.1463 25.2839 25.4555C23.8962 25.7647 21.8149 24.3734 21.4294 24.0642C21.121 23.8323 15.6477 20.3539 13.7204 18.6534C13.1808 18.1897 12.5641 17.2621 13.7975 16.1799L21.8919 8.45036C22.817 7.52279 23.7421 5.3585 19.8876 7.98658L9.09508 15.3297C9.09508 15.3297 7.86165 16.1027 5.549 15.407L0.538158 13.8611C0.538158 13.8611 -1.31199 12.7016 1.84868 11.5421C9.55765 7.90922 19.0397 4.199 27.4424 0.720707Z" fill="black"/>
</svg>
