<svg width="32" height="32" viewBox="0 0 32 32" fill="none" xmlns="http://www.w3.org/2000/svg">
<path d="M16 17C11.7734 17 8.33337 13.56 8.33337 9.33332C8.33337 5.10666 11.7734 1.66666 16 1.66666C20.2267 1.66666 23.6667 5.10666 23.6667 9.33332C23.6667 13.56 20.2267 17 16 17ZM16 3.66666C12.88 3.66666 10.3334 6.21332 10.3334 9.33332C10.3334 12.4533 12.88 15 16 15C19.12 15 21.6667 12.4533 21.6667 9.33332C21.6667 6.21332 19.12 3.66666 16 3.66666Z" fill="#6A6A6A"/>
<path d="M27.4535 30.3333C26.9069 30.3333 26.4535 29.88 26.4535 29.3333C26.4535 24.7333 21.7602 21 16.0002 21C10.2402 21 5.54687 24.7333 5.54687 29.3333C5.54687 29.88 5.09354 30.3333 4.54687 30.3333C4.00021 30.3333 3.54688 29.88 3.54688 29.3333C3.54688 23.64 9.13354 19 16.0002 19C22.8669 19 28.4535 23.64 28.4535 29.3333C28.4535 29.88 28.0002 30.3333 27.4535 30.3333Z" fill="#6A6A6A"/>
</svg>
