<svg width="40" height="40" viewBox="0 0 40 40" fill="none" xmlns="http://www.w3.org/2000/svg">
<path d="M38.1547 11.3543C38.4275 10.573 38.1547 10 36.8646 10H32.591C31.5036 10 31.0066 10.4957 30.7338 11.0401C30.7338 11.0401 28.5609 15.6088 25.4819 18.5712C24.488 19.4332 24.034 19.7054 23.4922 19.7054C23.2214 19.7054 22.8277 19.4332 22.8277 18.6518V11.3543C22.8277 10.4167 22.514 10 21.6078 10H14.8924C14.2142 10 13.805 10.4335 13.805 10.8469C13.805 11.7341 15.3445 11.9391 15.5023 14.4393V19.8633C15.5023 21.0513 15.2548 21.268 14.7092 21.268C13.2613 21.268 9.73792 16.6825 7.64691 11.4333C7.23962 10.4134 6.82843 10.0017 5.73713 10.0017H1.46546C0.243594 10.0017 0 10.4974 0 11.0418C0 12.0197 1.44792 16.859 6.74464 23.2592C10.2758 27.6296 15.2471 29.9988 19.776 29.9988C22.4906 29.9988 22.8258 29.4729 22.8258 28.5656V25.2621C22.8258 24.2102 23.0849 23.9985 23.9443 23.9985C24.5757 23.9985 25.6631 24.2741 28.1985 26.3795C31.0943 28.8764 31.5737 29.9972 33.2009 29.9972H37.4726C38.6925 29.9972 39.3025 29.4712 38.9517 28.4328C38.5678 27.3994 37.1842 25.8956 35.3484 24.1161C34.3507 23.1012 32.8599 22.0091 32.4058 21.463C31.7725 20.7589 31.9557 20.4481 32.4058 19.823C32.4078 19.8247 37.6129 13.5034 38.1547 11.3543Z" fill="black"/>
</svg>
